<?xml version="1.0" encoding="UTF-8" standalone="no"?>
<svg
   xmlns:dc="http://purl.org/dc/elements/1.1/"
   xmlns:cc="http://creativecommons.org/ns#"
   xmlns:rdf="http://www.w3.org/1999/02/22-rdf-syntax-ns#"
   xmlns:svg="http://www.w3.org/2000/svg"
   xmlns="http://www.w3.org/2000/svg"
   xmlns:sodipodi="http://sodipodi.sourceforge.net/DTD/sodipodi-0.dtd"
   xmlns:inkscape="http://www.inkscape.org/namespaces/inkscape"
   inkscape:export-ydpi="96"
   inkscape:export-xdpi="96"
   inkscape:export-filename="C:\Users\cyfin\OneDrive\Graphic Designs\PlayToolsPNG.png"
   sodipodi:docname="CodeToolsLogo.svg"
   inkscape:version="1.0.2 (e86c870879, 2021-01-15, custom)"
   id="svg1004"
   version="1.1"
   viewBox="0 0 264.58333 264.58334"
   height="1000"
   width="1000">
  <defs
     id="defs998" />
  <sodipodi:namedview
     inkscape:bbox-nodes="true"
     inkscape:snap-page="true"
     units="px"
     inkscape:window-maximized="1"
     inkscape:window-y="-8"
     inkscape:window-x="-8"
     inkscape:window-height="1017"
     inkscape:window-width="1920"
     inkscape:snap-bbox-midpoints="true"
     inkscape:snap-bbox="true"
     showgrid="false"
     inkscape:document-rotation="0"
     inkscape:current-layer="layer1"
     inkscape:document-units="mm"
     inkscape:cy="507.03822"
     inkscape:cx="508.05595"
     inkscape:zoom="0.7"
     inkscape:pageshadow="2"
     inkscape:pageopacity="0.0"
     borderopacity="1.0"
     bordercolor="#666666"
     pagecolor="#ffffff"
     id="base" />
  <metadata
     id="metadata1001">
    <rdf:RDF>
      <cc:Work
         rdf:about="">
        <dc:format>image/svg+xml</dc:format>
        <dc:type
           rdf:resource="http://purl.org/dc/dcmitype/StillImage" />
        <dc:title></dc:title>
      </cc:Work>
    </rdf:RDF>
  </metadata>
  <g
     inkscape:label="Layer 2"
     id="layer4"
     inkscape:groupmode="layer"
     style="display:inline">
    <circle
       r="132.29167"
       cy="132.29167"
       cx="132.29167"
       id="path1636"
       style="fill:#000000;stroke:#ffffff;stroke-width:0;stroke-linecap:round;stroke-linejoin:round;stroke-miterlimit:4;stroke-dasharray:none" />
    <g
       id="g1438"
       transform="matrix(6.2492063,0,0,6.2492063,-99.987301,143.85774)">
      <path
         d="M 0,0 H 24 V 24 H 0 Z"
         fill="none"
         id="path1424" />
    </g>
  </g>
  <g
     id="layer1"
     inkscape:groupmode="layer"
     inkscape:label="Layer 1"
     style="display:inline">
    <path
       sodipodi:nodetypes="csccccccccssccccccccsccccccccsscccccccc"
       style="fill:#ffffff;stroke-width:10.3997"
       id="path1583"
       d="m 201.59682,104.01889 c -1.18362,-2.91648 -2.59945,-5.820307 -4.29901,-8.801832 -1.64807,-2.891152 -3.47692,-5.679254 -5.4736,-8.132271 l 10.2036,-24.729931 c 0.90528,-2.191932 -0.0339,-4.888881 -2.05739,-6.129322 L 165.5249,36.117942 c -2.21722,-1.369661 -4.83643,-0.714542 -6.46362,1.050915 l -16.64926,20.982372 c -6.4745,-0.858203 -12.91104,-1.019762 -19.47767,-0.149491 L 106.60041,36.907162 c -1.59744,-1.962406 -4.27993,-2.468271 -6.44831,-1.232237 L 65.458097,55.4515 c -2.168377,1.236034 -3.009488,3.750475 -2.134848,6.124848 l 9.828813,24.80271 c -4.094552,5.206949 -7.273847,10.969559 -9.795399,16.836032 l -26.537548,3.63536 c -2.399685,0.41023 -4.246399,2.42057 -4.197555,5.02627 l -0.15817,39.83264 c -0.0027,2.51532 1.697786,4.65841 4.225789,4.89329 l 26.478074,3.82034 c 1.093295,2.96796 2.43145,6.15549 4.027996,8.9563 1.596542,2.80082 3.476797,5.67932 5.47358,8.13227 l -10.203597,24.72997 c -0.905271,2.1919 0.03356,4.88885 2.0574,6.12929 l 34.445497,20.10759 c 2.217221,1.36967 4.836451,0.71455 6.463621,-1.05091 l 16.64927,-20.98238 c 6.47449,0.8582 12.91104,1.01976 19.47767,0.14949 l 16.33393,21.09458 c 1.68779,1.91089 4.27994,2.46828 6.44831,1.23224 l 34.69399,-19.77658 c 2.16841,-1.23603 3.09987,-3.80197 2.13485,-6.12485 l -9.82881,-24.80271 c 4.09458,-5.20695 7.32535,-10.87922 9.79542,-16.83603 l 26.53753,-3.63536 c 2.39969,-0.41023 4.2464,-2.42057 4.19756,-5.02627 l 0.24847,-39.88413 c -0.0488,-2.6057 -1.7881,-4.60695 -4.22576,-4.89326 z" />
    <path
       d="m 117.73348,159.19317 -25.756801,-26.90148 25.756801,-26.90149 -7.83903,-8.187408 -33.595819,35.088898 33.595819,35.0889 z m 29.11636,0 25.7568,-26.90148 -25.7568,-26.90149 7.83903,-8.187408 33.59582,35.088898 -33.59582,35.0889 z"
       id="path1426"
       style="display:inline;fill:#000000;stroke:#000000;stroke-width:7.21103;stroke-linejoin:round;stroke-miterlimit:4;stroke-dasharray:none;stroke-opacity:1" />
  </g>
</svg>
